<mxfile host="65bd71144e">
    <diagram id="NUB0BDlxJpJyGZSdcPtj" name="Development">
        <mxGraphModel dx="1123" dy="638" grid="0" gridSize="10" guides="1" tooltips="1" connect="1" arrows="1" fold="1" page="0" pageScale="1" pageWidth="850" pageHeight="1100" math="0" shadow="0">
            <root>
                <mxCell id="0"/>
                <mxCell id="1" parent="0"/>
                <mxCell id="2" value="&amp;lt;&amp;lt;Device&amp;gt;&amp;gt;&lt;br&gt;Developer PC" style="verticalAlign=top;align=center;spacingTop=8;spacingLeft=2;spacingRight=12;shape=cube;size=10;direction=south;fontStyle=0;html=1;" vertex="1" parent="1">
                    <mxGeometry x="210" y="320" width="200" height="360" as="geometry"/>
                </mxCell>
                <mxCell id="7" value="&amp;lt;&amp;lt;Software&amp;gt;&amp;gt;&lt;br&gt;VSCode" style="verticalAlign=top;align=center;spacingTop=8;spacingLeft=2;spacingRight=12;shape=cube;size=10;direction=south;fontStyle=0;html=1;" vertex="1" parent="1">
                    <mxGeometry x="240" y="380" width="130" height="60" as="geometry"/>
                </mxCell>
                <mxCell id="8" value="&amp;lt;&amp;lt;Artifact&amp;gt;&amp;gt;&lt;br&gt;App repository" style="verticalAlign=top;align=center;spacingTop=8;spacingLeft=2;spacingRight=12;shape=cube;size=10;direction=south;fontStyle=0;html=1;" vertex="1" parent="1">
                    <mxGeometry x="240" y="450" width="130" height="60" as="geometry"/>
                </mxCell>
                <mxCell id="9" value="&amp;lt;&amp;lt;Software&amp;gt;&amp;gt;&lt;br&gt;C# SDK v6.0.x" style="verticalAlign=top;align=center;spacingTop=8;spacingLeft=2;spacingRight=12;shape=cube;size=10;direction=south;fontStyle=0;html=1;" vertex="1" parent="1">
                    <mxGeometry x="240" y="520" width="130" height="60" as="geometry"/>
                </mxCell>
                <mxCell id="10" value="&amp;lt;&amp;lt;Software&amp;gt;&amp;gt;&lt;br&gt;NPM any version" style="verticalAlign=top;align=center;spacingTop=8;spacingLeft=2;spacingRight=12;shape=cube;size=10;direction=south;fontStyle=0;html=1;" vertex="1" parent="1">
                    <mxGeometry x="240" y="590" width="130" height="60" as="geometry"/>
                </mxCell>
            </root>
        </mxGraphModel>
    </diagram>
    <diagram id="_qjlGzIxgvEs2GtMjwP1" name="Production">
        <mxGraphModel dx="1348" dy="766" grid="0" gridSize="10" guides="1" tooltips="1" connect="1" arrows="1" fold="1" page="0" pageScale="1" pageWidth="850" pageHeight="1100" math="0" shadow="0">
            <root>
                <mxCell id="7c8DIm2s9IVvJH2qhtgQ-0"/>
                <mxCell id="7c8DIm2s9IVvJH2qhtgQ-1" parent="7c8DIm2s9IVvJH2qhtgQ-0"/>
                <mxCell id="DNd_sJyUmZXuljV0QjNC-0" value="&amp;lt;&amp;lt;Device&amp;gt;&amp;gt;&lt;br&gt;User PC (Windows 11)" style="verticalAlign=top;align=center;spacingTop=8;spacingLeft=2;spacingRight=12;shape=cube;size=10;direction=south;fontStyle=0;html=1;" vertex="1" parent="7c8DIm2s9IVvJH2qhtgQ-1">
                    <mxGeometry x="210" y="320" width="200" height="140" as="geometry"/>
                </mxCell>
                <mxCell id="DNd_sJyUmZXuljV0QjNC-3" value="&amp;lt;&amp;lt;Software&amp;gt;&amp;gt;&lt;br&gt;Application LTS" style="verticalAlign=top;align=center;spacingTop=8;spacingLeft=2;spacingRight=12;shape=cube;size=10;direction=south;fontStyle=0;html=1;" vertex="1" parent="7c8DIm2s9IVvJH2qhtgQ-1">
                    <mxGeometry x="240" y="380" width="130" height="60" as="geometry"/>
                </mxCell>
            </root>
        </mxGraphModel>
    </diagram>
</mxfile>